<svg width="24" height="24" viewBox="0 0 24 24" fill="none" xmlns="http://www.w3.org/2000/svg">
<path d="M7.37264 12.3438L7.0874 12.025L7.37264 11.7062C7.40121 11.6742 7.43582 11.6437 7.47723 11.6161L7.47726 11.6161L7.48307 11.6122L20.7331 2.51216L20.7442 2.50453L20.7549 2.49631C21.0401 2.2769 21.5 2.4688 21.5 2.9L21.5 21.1C21.5 21.5312 21.0401 21.7231 20.7549 21.5037L20.7437 21.4951L20.732 21.4871L7.48201 12.4371L7.48203 12.4371L7.47723 12.4339C7.43582 12.4063 7.40121 12.3758 7.37264 12.3438ZM6.5 12.6772L6.5 12.6816L6.5 21.5C6.5 21.7739 6.27386 22 6 22L3 22C2.72614 22 2.5 21.7739 2.5 21.5L2.5 2.5C2.5 2.22614 2.72614 2 3 2L6 2C6.27386 2 6.5 2.22614 6.5 2.5L6.5 11.3684L6.5 11.3728L6.5 12.6772Z" fill="#0B0606" stroke="#0B0606"/>
</svg>
