<svg width="27" height="27" viewBox="0 0 27 27" fill="none" xmlns="http://www.w3.org/2000/svg">
<circle cx="13.5" cy="13.5" r="13.5" fill="#FEE500"/>
<path d="M13.5395 6.51562C9.33935 6.51562 5.95215 9.22536 5.95215 12.515C5.95215 14.6503 7.36123 16.52 9.47484 17.5877L8.75946 20.2595C8.74597 20.2996 8.7439 20.3425 8.75347 20.3837C8.76304 20.4249 8.78388 20.4625 8.81366 20.4925C8.85707 20.5308 8.91294 20.552 8.97082 20.5521C9.01882 20.5483 9.06436 20.5293 9.10089 20.498L12.1792 18.4223C12.6336 18.485 13.0916 18.5176 13.5503 18.5198C17.745 18.5198 21.1377 15.8101 21.1377 12.515C21.1377 9.21994 17.7342 6.51562 13.5395 6.51562Z" fill="#392020"/>
<path d="M8.60759 11.5668H7.77841C7.67563 11.5698 7.57413 11.5434 7.48575 11.4909C7.44651 11.4663 7.41278 11.4339 7.38667 11.3956C7.36055 11.3574 7.34262 11.3142 7.33401 11.2687C7.33137 11.2398 7.33137 11.2109 7.33401 11.182C7.33143 11.128 7.34191 11.0742 7.36455 11.0252C7.38719 10.9761 7.42133 10.9332 7.46407 10.9002C7.55856 10.8318 7.6726 10.7956 7.78924 10.7972H10.2876C10.3912 10.7935 10.4934 10.8219 10.5803 10.8785C10.6205 10.902 10.6549 10.9341 10.6812 10.9726C10.7074 11.011 10.7248 11.0548 10.732 11.1007C10.7347 11.1277 10.7347 11.155 10.732 11.182C10.7346 11.2368 10.7241 11.2913 10.7015 11.3413C10.6789 11.3912 10.6448 11.435 10.602 11.4692C10.5098 11.5375 10.3969 11.572 10.2822 11.5668H9.48014V14.4175C9.4834 14.4782 9.474 14.5389 9.45254 14.5958C9.43108 14.6527 9.39803 14.7046 9.35549 14.748C9.31469 14.7896 9.26565 14.8222 9.21151 14.8436C9.15738 14.8651 9.09934 14.875 9.04115 14.8727C8.93937 14.8756 8.83975 14.8431 8.75934 14.7806C8.68279 14.7196 8.63083 14.6329 8.61301 14.5367C8.60766 14.4971 8.60766 14.457 8.61301 14.4175L8.60759 11.5668Z" fill="#FEE500"/>
<path d="M10.9714 11.0079C10.9952 10.9187 11.0512 10.8415 11.1286 10.7911C11.211 10.7444 11.3049 10.7219 11.3995 10.7261H11.6055C11.7059 10.7225 11.8054 10.7469 11.8927 10.7965C11.9853 10.8588 12.0511 10.9536 12.077 11.0621L13.1609 14.1241C13.189 14.204 13.2125 14.2855 13.2313 14.3681C13.2332 14.4024 13.2332 14.4367 13.2313 14.471C13.2332 14.5238 13.2234 14.5764 13.2029 14.6251C13.1823 14.6738 13.1513 14.7174 13.1121 14.7528C13.0741 14.7917 13.0286 14.8224 12.9782 14.8429C12.9278 14.8634 12.8738 14.8733 12.8195 14.872C12.7359 14.8803 12.6519 14.8603 12.5811 14.8151C12.5103 14.7699 12.4568 14.7021 12.4292 14.6228L12.2016 13.9562H10.7763L10.5487 14.6228C10.5218 14.7037 10.4676 14.7727 10.3955 14.8182C10.3233 14.8636 10.2376 14.8827 10.153 14.872C10.0614 14.8744 9.97164 14.8458 9.89833 14.7907C9.8269 14.7339 9.77872 14.653 9.76284 14.5632C9.75996 14.5325 9.75996 14.5016 9.76284 14.471C9.75353 14.4172 9.75353 14.3622 9.76284 14.3085C9.76284 14.2488 9.80078 14.1838 9.82245 14.1241L10.9714 11.0079ZM11.5133 11.7179L10.9985 13.3438H12.0228L11.5133 11.7179Z" fill="#FEE500"/>
<path d="M13.355 11.1823C13.3495 11.0607 13.3923 10.9418 13.4742 10.8517C13.5158 10.8097 13.5658 10.7769 13.6209 10.7555C13.6759 10.734 13.7349 10.7243 13.7939 10.727C13.8955 10.7258 13.9945 10.7582 14.0758 10.8192C14.151 10.8827 14.201 10.9712 14.2167 11.0684C14.222 11.1062 14.222 11.1446 14.2167 11.1823V14.033H15.707C15.8103 14.0316 15.9119 14.0598 15.9997 14.1142C16.0391 14.1385 16.0731 14.1709 16.0992 14.2092C16.1253 14.2475 16.1431 14.2908 16.1514 14.3364C16.1514 14.3364 16.1514 14.3906 16.1514 14.4177C16.154 14.4717 16.1435 14.5255 16.1209 14.5745C16.0983 14.6236 16.0641 14.6665 16.0214 14.6996C15.9269 14.768 15.8128 14.8041 15.6962 14.8025H13.8644C13.7477 14.81 13.6318 14.7796 13.5338 14.7158C13.4462 14.6503 13.3878 14.553 13.3712 14.4449C13.3673 14.3853 13.3673 14.3255 13.3712 14.266L13.355 11.1823Z" fill="#FEE500"/>
<path d="M16.2494 11.1819C16.2462 11.0606 16.2888 10.9426 16.3687 10.8513C16.4499 10.7775 16.5541 10.7339 16.6637 10.728C16.7732 10.7221 16.8815 10.7542 16.9702 10.8188C17.0471 10.8818 17.099 10.9702 17.1165 11.0681C17.1192 11.106 17.1192 11.144 17.1165 11.1819V12.5097L18.4877 10.9271C18.5405 10.8732 18.5966 10.8225 18.6557 10.7755C18.7114 10.7423 18.7752 10.7254 18.84 10.7266C18.9347 10.7261 19.0273 10.7545 19.1055 10.8079C19.1424 10.8327 19.1738 10.8648 19.198 10.902C19.2223 10.9393 19.2387 10.981 19.2464 11.0247C19.2486 11.0355 19.2486 11.0465 19.2464 11.0573C19.2438 11.0698 19.2438 11.0827 19.2464 11.0952C19.2462 11.1522 19.2313 11.2082 19.2031 11.2578C19.1743 11.3103 19.1398 11.3593 19.1001 11.4041L18.2005 12.3905L19.2844 14.0705V14.1247C19.3406 14.2023 19.3845 14.2883 19.4144 14.3794V14.4065C19.4207 14.4693 19.4116 14.5327 19.388 14.5912C19.3644 14.6497 19.327 14.7016 19.2789 14.7425C19.1885 14.8108 19.0779 14.8471 18.9646 14.8455C18.8893 14.8486 18.8145 14.8318 18.7478 14.7967C18.6756 14.7483 18.6162 14.6832 18.5744 14.607L17.5664 12.9812L17.084 13.4852V14.3902C17.0873 14.5115 17.0447 14.6295 16.9648 14.7208C16.922 14.7627 16.871 14.7954 16.8151 14.8168C16.7592 14.8382 16.6995 14.848 16.6396 14.8455C16.5396 14.8476 16.442 14.815 16.3632 14.7534C16.2867 14.6923 16.2347 14.6058 16.2169 14.5095C16.2116 14.47 16.2116 14.4298 16.2169 14.3902L16.2494 11.1819Z" fill="#FEE500"/>
</svg>
