<svg width="22" height="22" viewBox="0 0 22 22" fill="none" xmlns="http://www.w3.org/2000/svg">
<path d="M15.7143 22C14.85 22 14.1104 21.6925 13.4954 21.0776C12.8794 20.4616 12.5714 19.7214 12.5714 18.8571V3.14286C12.5714 2.27857 12.8794 1.53895 13.4954 0.924C14.1104 0.308 14.85 0 15.7143 0H18.8571C19.7214 0 20.4616 0.308 21.0776 0.924C21.6925 1.53895 22 2.27857 22 3.14286V18.8571C22 19.7214 21.6925 20.4616 21.0776 21.0776C20.4616 21.6925 19.7214 22 18.8571 22H15.7143ZM3.14286 22C2.27857 22 1.53895 21.6925 0.924 21.0776C0.308 20.4616 0 19.7214 0 18.8571V3.14286C0 2.27857 0.308 1.53895 0.924 0.924C1.53895 0.308 2.27857 0 3.14286 0H6.28571C7.15 0 7.89014 0.308 8.50614 0.924C9.1211 1.53895 9.42857 2.27857 9.42857 3.14286V18.8571C9.42857 19.7214 9.1211 20.4616 8.50614 21.0776C7.89014 21.6925 7.15 22 6.28571 22H3.14286Z" fill="black"/>
</svg>
